<mxfile host="app.diagrams.net" modified="2020-12-13T11:26:53.081Z" agent="5.0 (Macintosh)" etag="8EqUC3Qut_4a1Qvo8x6U" version="14.0.1" type="github">
  <diagram id="lpGRFmGQLCXJ5mcSEajq" name="Page-1">
    <mxGraphModel dx="1427" dy="744" grid="1" gridSize="10" guides="1" tooltips="1" connect="1" arrows="1" fold="1" page="1" pageScale="1" pageWidth="827" pageHeight="1169" math="0" shadow="0">
      <root>
        <mxCell id="0" />
        <mxCell id="1" parent="0" />
        <mxCell id="n1AY75dDJvXKPIUKiL3a-1" value="" style="rounded=0;whiteSpace=wrap;html=1;" parent="1" vertex="1">
          <mxGeometry x="40" y="20" width="1000" height="980" as="geometry" />
        </mxCell>
        <mxCell id="n1AY75dDJvXKPIUKiL3a-2" value="App.js" style="text;html=1;strokeColor=#b46504;fillColor=#fad7ac;align=center;verticalAlign=middle;whiteSpace=wrap;rounded=0;" parent="1" vertex="1">
          <mxGeometry x="40" y="20" width="120" height="20" as="geometry" />
        </mxCell>
        <mxCell id="n1AY75dDJvXKPIUKiL3a-3" value="" style="rounded=0;whiteSpace=wrap;html=1;fillColor=#f5f5f5;strokeColor=#666666;fontColor=#333333;" parent="1" vertex="1">
          <mxGeometry x="50" y="50" width="980" height="70" as="geometry" />
        </mxCell>
        <mxCell id="n1AY75dDJvXKPIUKiL3a-5" value="Header" style="text;html=1;strokeColor=#6c8ebf;fillColor=#dae8fc;align=center;verticalAlign=middle;whiteSpace=wrap;rounded=0;" parent="1" vertex="1">
          <mxGeometry x="50" y="50" width="120" height="20" as="geometry" />
        </mxCell>
        <mxCell id="n1AY75dDJvXKPIUKiL3a-6" value="(fixed)" style="rounded=0;whiteSpace=wrap;html=1;fillColor=#f5f5f5;strokeColor=#666666;fontColor=#333333;" parent="1" vertex="1">
          <mxGeometry x="50" y="920" width="980" height="70" as="geometry" />
        </mxCell>
        <mxCell id="n1AY75dDJvXKPIUKiL3a-7" value="Footer" style="text;html=1;strokeColor=#6c8ebf;fillColor=#dae8fc;align=center;verticalAlign=middle;whiteSpace=wrap;rounded=0;" parent="1" vertex="1">
          <mxGeometry x="50" y="880" width="120" height="20" as="geometry" />
        </mxCell>
        <mxCell id="n1AY75dDJvXKPIUKiL3a-8" value="" style="rounded=0;whiteSpace=wrap;html=1;fillColor=#f5f5f5;strokeColor=#666666;fontColor=#333333;" parent="1" vertex="1">
          <mxGeometry x="50" y="130" width="980" height="780" as="geometry" />
        </mxCell>
        <mxCell id="n1AY75dDJvXKPIUKiL3a-11" value="GamesList Container" style="text;html=1;strokeColor=#b46504;fillColor=#fad7ac;align=center;verticalAlign=middle;whiteSpace=wrap;rounded=0;" parent="1" vertex="1">
          <mxGeometry x="50" y="130" width="150" height="20" as="geometry" />
        </mxCell>
        <mxCell id="n1AY75dDJvXKPIUKiL3a-20" value="" style="rounded=0;whiteSpace=wrap;html=1;" parent="1" vertex="1">
          <mxGeometry x="1080" y="20" width="1000" height="980" as="geometry" />
        </mxCell>
        <mxCell id="n1AY75dDJvXKPIUKiL3a-21" value="App.js" style="text;html=1;strokeColor=#d79b00;fillColor=#ffe6cc;align=center;verticalAlign=middle;whiteSpace=wrap;rounded=0;" parent="1" vertex="1">
          <mxGeometry x="1080" y="20" width="120" height="20" as="geometry" />
        </mxCell>
        <mxCell id="n1AY75dDJvXKPIUKiL3a-22" value="" style="rounded=0;whiteSpace=wrap;html=1;fillColor=#f5f5f5;strokeColor=#666666;fontColor=#333333;" parent="1" vertex="1">
          <mxGeometry x="1090" y="50" width="980" height="70" as="geometry" />
        </mxCell>
        <mxCell id="n1AY75dDJvXKPIUKiL3a-23" value="Header" style="text;html=1;strokeColor=#6c8ebf;fillColor=#dae8fc;align=center;verticalAlign=middle;whiteSpace=wrap;rounded=0;" parent="1" vertex="1">
          <mxGeometry x="1090" y="50" width="120" height="20" as="geometry" />
        </mxCell>
        <mxCell id="n1AY75dDJvXKPIUKiL3a-24" value="(fixed)" style="rounded=0;whiteSpace=wrap;html=1;fillColor=#f5f5f5;strokeColor=#666666;fontColor=#333333;" parent="1" vertex="1">
          <mxGeometry x="1090" y="920" width="980" height="70" as="geometry" />
        </mxCell>
        <mxCell id="n1AY75dDJvXKPIUKiL3a-25" value="Footer" style="text;html=1;strokeColor=#6c8ebf;fillColor=#dae8fc;align=center;verticalAlign=middle;whiteSpace=wrap;rounded=0;" parent="1" vertex="1">
          <mxGeometry x="1090" y="880" width="120" height="20" as="geometry" />
        </mxCell>
        <mxCell id="n1AY75dDJvXKPIUKiL3a-26" value="" style="rounded=0;whiteSpace=wrap;html=1;fillColor=#f5f5f5;strokeColor=#666666;fontColor=#333333;" parent="1" vertex="1">
          <mxGeometry x="1090" y="130" width="980" height="780" as="geometry" />
        </mxCell>
        <mxCell id="n1AY75dDJvXKPIUKiL3a-27" value="Game Container" style="text;html=1;strokeColor=#d79b00;fillColor=#ffe6cc;align=center;verticalAlign=middle;whiteSpace=wrap;rounded=0;" parent="1" vertex="1">
          <mxGeometry x="1090" y="130" width="120" height="20" as="geometry" />
        </mxCell>
        <mxCell id="n1AY75dDJvXKPIUKiL3a-30" value="" style="rounded=0;whiteSpace=wrap;html=1;" parent="1" vertex="1">
          <mxGeometry x="1110" y="160" width="680" height="720" as="geometry" />
        </mxCell>
        <mxCell id="n1AY75dDJvXKPIUKiL3a-31" value="Selected Game" style="text;html=1;strokeColor=#6c8ebf;fillColor=#dae8fc;align=center;verticalAlign=middle;whiteSpace=wrap;rounded=0;" parent="1" vertex="1">
          <mxGeometry x="1110" y="160" width="120" height="20" as="geometry" />
        </mxCell>
        <mxCell id="n1AY75dDJvXKPIUKiL3a-40" value="" style="rounded=0;whiteSpace=wrap;html=1;" parent="1" vertex="1">
          <mxGeometry x="1820" y="160" width="230" height="140" as="geometry" />
        </mxCell>
        <mxCell id="n1AY75dDJvXKPIUKiL3a-41" value="Personal Best" style="text;html=1;strokeColor=#6c8ebf;fillColor=#dae8fc;align=center;verticalAlign=middle;whiteSpace=wrap;rounded=0;" parent="1" vertex="1">
          <mxGeometry x="1820" y="160" width="120" height="20" as="geometry" />
        </mxCell>
        <mxCell id="n1AY75dDJvXKPIUKiL3a-42" value="" style="rounded=0;whiteSpace=wrap;html=1;" parent="1" vertex="1">
          <mxGeometry x="1820" y="320" width="230" height="560" as="geometry" />
        </mxCell>
        <mxCell id="n1AY75dDJvXKPIUKiL3a-43" value="Suggestions" style="text;html=1;strokeColor=#6c8ebf;fillColor=#dae8fc;align=center;verticalAlign=middle;whiteSpace=wrap;rounded=0;" parent="1" vertex="1">
          <mxGeometry x="1820" y="320" width="130" height="20" as="geometry" />
        </mxCell>
        <mxCell id="n1AY75dDJvXKPIUKiL3a-44" value="Footer" style="text;html=1;strokeColor=#6c8ebf;fillColor=#dae8fc;align=center;verticalAlign=middle;whiteSpace=wrap;rounded=0;" parent="1" vertex="1">
          <mxGeometry x="50" y="920" width="120" height="20" as="geometry" />
        </mxCell>
        <mxCell id="n1AY75dDJvXKPIUKiL3a-45" value="Footer" style="text;html=1;strokeColor=#6c8ebf;fillColor=#dae8fc;align=center;verticalAlign=middle;whiteSpace=wrap;rounded=0;" parent="1" vertex="1">
          <mxGeometry x="1090" y="920" width="120" height="20" as="geometry" />
        </mxCell>
        <mxCell id="n1AY75dDJvXKPIUKiL3a-46" value="" style="rounded=0;whiteSpace=wrap;html=1;" parent="1" vertex="1">
          <mxGeometry x="1080" y="1080" width="1000" height="980" as="geometry" />
        </mxCell>
        <mxCell id="n1AY75dDJvXKPIUKiL3a-47" value="App.js" style="text;html=1;strokeColor=#d79b00;fillColor=#ffe6cc;align=center;verticalAlign=middle;whiteSpace=wrap;rounded=0;" parent="1" vertex="1">
          <mxGeometry x="1080" y="1080" width="120" height="20" as="geometry" />
        </mxCell>
        <mxCell id="n1AY75dDJvXKPIUKiL3a-48" value="" style="rounded=0;whiteSpace=wrap;html=1;fillColor=#f5f5f5;strokeColor=#666666;fontColor=#333333;" parent="1" vertex="1">
          <mxGeometry x="1090" y="1110" width="980" height="70" as="geometry" />
        </mxCell>
        <mxCell id="n1AY75dDJvXKPIUKiL3a-49" value="Header" style="text;html=1;strokeColor=#6c8ebf;fillColor=#dae8fc;align=center;verticalAlign=middle;whiteSpace=wrap;rounded=0;" parent="1" vertex="1">
          <mxGeometry x="1090" y="1110" width="120" height="20" as="geometry" />
        </mxCell>
        <mxCell id="n1AY75dDJvXKPIUKiL3a-50" value="(fixed)" style="rounded=0;whiteSpace=wrap;html=1;fillColor=#f5f5f5;strokeColor=#666666;fontColor=#333333;" parent="1" vertex="1">
          <mxGeometry x="1090" y="1980" width="980" height="70" as="geometry" />
        </mxCell>
        <mxCell id="n1AY75dDJvXKPIUKiL3a-51" value="Footer" style="text;html=1;strokeColor=#6c8ebf;fillColor=#dae8fc;align=center;verticalAlign=middle;whiteSpace=wrap;rounded=0;" parent="1" vertex="1">
          <mxGeometry x="1090" y="1940" width="120" height="20" as="geometry" />
        </mxCell>
        <mxCell id="n1AY75dDJvXKPIUKiL3a-52" value="" style="rounded=0;whiteSpace=wrap;html=1;fillColor=#f5f5f5;strokeColor=#666666;fontColor=#333333;" parent="1" vertex="1">
          <mxGeometry x="1090" y="1190" width="980" height="780" as="geometry" />
        </mxCell>
        <mxCell id="n1AY75dDJvXKPIUKiL3a-53" value="ScoreLists Container" style="text;html=1;strokeColor=#d79b00;fillColor=#ffe6cc;align=center;verticalAlign=middle;whiteSpace=wrap;rounded=0;" parent="1" vertex="1">
          <mxGeometry x="1090" y="1190" width="120" height="20" as="geometry" />
        </mxCell>
        <mxCell id="n1AY75dDJvXKPIUKiL3a-56" value="" style="rounded=0;whiteSpace=wrap;html=1;" parent="1" vertex="1">
          <mxGeometry x="1120" y="1230" width="920" height="710" as="geometry" />
        </mxCell>
        <mxCell id="n1AY75dDJvXKPIUKiL3a-57" value="Hall of Fame" style="text;html=1;strokeColor=#6c8ebf;fillColor=#dae8fc;align=center;verticalAlign=middle;whiteSpace=wrap;rounded=0;" parent="1" vertex="1">
          <mxGeometry x="1120" y="1230" width="120" height="20" as="geometry" />
        </mxCell>
        <mxCell id="n1AY75dDJvXKPIUKiL3a-62" value="Footer" style="text;html=1;strokeColor=#6c8ebf;fillColor=#dae8fc;align=center;verticalAlign=middle;whiteSpace=wrap;rounded=0;" parent="1" vertex="1">
          <mxGeometry x="1090" y="1980" width="120" height="20" as="geometry" />
        </mxCell>
        <mxCell id="n1AY75dDJvXKPIUKiL3a-63" value="SCOREBOARD" style="text;html=1;strokeColor=#ae4132;fillColor=#fad9d5;align=center;verticalAlign=middle;whiteSpace=wrap;rounded=0;" parent="1" vertex="1">
          <mxGeometry x="1530" y="1110" width="100" height="20" as="geometry" />
        </mxCell>
        <mxCell id="n1AY75dDJvXKPIUKiL3a-64" value="GAME" style="text;html=1;strokeColor=#ae4132;fillColor=#fad9d5;align=center;verticalAlign=middle;whiteSpace=wrap;rounded=0;" parent="1" vertex="1">
          <mxGeometry x="1530" y="50" width="100" height="20" as="geometry" />
        </mxCell>
        <mxCell id="n1AY75dDJvXKPIUKiL3a-65" value="HOME" style="text;html=1;strokeColor=#ae4132;fillColor=#fad9d5;align=center;verticalAlign=middle;whiteSpace=wrap;rounded=0;" parent="1" vertex="1">
          <mxGeometry x="485" y="50" width="100" height="20" as="geometry" />
        </mxCell>
        <mxCell id="n1AY75dDJvXKPIUKiL3a-68" value="" style="rounded=0;whiteSpace=wrap;html=1;" parent="1" vertex="1">
          <mxGeometry x="40" y="1080" width="1000" height="980" as="geometry" />
        </mxCell>
        <mxCell id="n1AY75dDJvXKPIUKiL3a-69" value="&lt;div&gt;MainContainer&lt;/div&gt;" style="text;html=1;strokeColor=#b46504;fillColor=#fad7ac;align=center;verticalAlign=middle;whiteSpace=wrap;rounded=0;" parent="1" vertex="1">
          <mxGeometry x="40" y="1080" width="120" height="20" as="geometry" />
        </mxCell>
        <mxCell id="n1AY75dDJvXKPIUKiL3a-70" value="" style="rounded=0;whiteSpace=wrap;html=1;fillColor=#f5f5f5;strokeColor=#666666;fontColor=#333333;" parent="1" vertex="1">
          <mxGeometry x="50" y="1110" width="980" height="70" as="geometry" />
        </mxCell>
        <mxCell id="n1AY75dDJvXKPIUKiL3a-71" value="Header" style="text;html=1;strokeColor=#6c8ebf;fillColor=#dae8fc;align=center;verticalAlign=middle;whiteSpace=wrap;rounded=0;" parent="1" vertex="1">
          <mxGeometry x="50" y="1110" width="120" height="20" as="geometry" />
        </mxCell>
        <mxCell id="n1AY75dDJvXKPIUKiL3a-72" value="(fixed)" style="rounded=0;whiteSpace=wrap;html=1;fillColor=#f5f5f5;strokeColor=#666666;fontColor=#333333;" parent="1" vertex="1">
          <mxGeometry x="50" y="1980" width="980" height="70" as="geometry" />
        </mxCell>
        <mxCell id="n1AY75dDJvXKPIUKiL3a-73" value="Footer" style="text;html=1;strokeColor=#6c8ebf;fillColor=#dae8fc;align=center;verticalAlign=middle;whiteSpace=wrap;rounded=0;" parent="1" vertex="1">
          <mxGeometry x="50" y="1940" width="120" height="20" as="geometry" />
        </mxCell>
        <mxCell id="n1AY75dDJvXKPIUKiL3a-74" value="" style="rounded=0;whiteSpace=wrap;html=1;fillColor=#f5f5f5;strokeColor=#666666;fontColor=#333333;" parent="1" vertex="1">
          <mxGeometry x="50" y="1190" width="980" height="780" as="geometry" />
        </mxCell>
        <mxCell id="n1AY75dDJvXKPIUKiL3a-75" value="&amp;lt;content&amp;gt; Container" style="text;html=1;strokeColor=#b46504;fillColor=#fad7ac;align=center;verticalAlign=middle;whiteSpace=wrap;rounded=0;" parent="1" vertex="1">
          <mxGeometry x="50" y="1190" width="120" height="20" as="geometry" />
        </mxCell>
        <mxCell id="n1AY75dDJvXKPIUKiL3a-86" value="Footer" style="text;html=1;strokeColor=#6c8ebf;fillColor=#dae8fc;align=center;verticalAlign=middle;whiteSpace=wrap;rounded=0;" parent="1" vertex="1">
          <mxGeometry x="50" y="1980" width="120" height="20" as="geometry" />
        </mxCell>
        <mxCell id="n1AY75dDJvXKPIUKiL3a-87" value="&amp;lt;content&amp;gt;" style="text;html=1;strokeColor=#ae4132;fillColor=#fad9d5;align=center;verticalAlign=middle;whiteSpace=wrap;rounded=0;" parent="1" vertex="1">
          <mxGeometry x="485" y="1110" width="100" height="20" as="geometry" />
        </mxCell>
        <mxCell id="XGGesKq-egn7d49ll_vX-3" value="" style="group" parent="1" vertex="1" connectable="0">
          <mxGeometry x="90" y="230" width="260" height="230" as="geometry" />
        </mxCell>
        <mxCell id="n1AY75dDJvXKPIUKiL3a-14" value="" style="rounded=0;whiteSpace=wrap;html=1;fillColor=#f5f5f5;strokeColor=#666666;fontColor=#333333;" parent="XGGesKq-egn7d49ll_vX-3" vertex="1">
          <mxGeometry width="260" height="230" as="geometry" />
        </mxCell>
        <mxCell id="n1AY75dDJvXKPIUKiL3a-15" value="Game 1" style="text;html=1;strokeColor=#6c8ebf;fillColor=#dae8fc;align=center;verticalAlign=middle;whiteSpace=wrap;rounded=0;" parent="XGGesKq-egn7d49ll_vX-3" vertex="1">
          <mxGeometry width="120" height="20" as="geometry" />
        </mxCell>
        <mxCell id="cUkHE_b0gsF6nqKIRXyq-20" value="unlocked" style="shape=note;whiteSpace=wrap;html=1;backgroundOutline=1;darkOpacity=0.05;fillColor=#d5e8d4;strokeColor=#82b366;fontStyle=1" parent="XGGesKq-egn7d49ll_vX-3" vertex="1">
          <mxGeometry x="90" y="65" width="80" height="100" as="geometry" />
        </mxCell>
        <mxCell id="XGGesKq-egn7d49ll_vX-4" value="" style="group" parent="1" vertex="1" connectable="0">
          <mxGeometry x="410" y="230" width="260" height="230" as="geometry" />
        </mxCell>
        <mxCell id="XGGesKq-egn7d49ll_vX-5" value="" style="rounded=0;whiteSpace=wrap;html=1;fillColor=#f5f5f5;strokeColor=#666666;fontColor=#333333;" parent="XGGesKq-egn7d49ll_vX-4" vertex="1">
          <mxGeometry width="260" height="230" as="geometry" />
        </mxCell>
        <mxCell id="XGGesKq-egn7d49ll_vX-6" value="Game 2" style="text;html=1;strokeColor=#6c8ebf;fillColor=#dae8fc;align=center;verticalAlign=middle;whiteSpace=wrap;rounded=0;" parent="XGGesKq-egn7d49ll_vX-4" vertex="1">
          <mxGeometry width="120" height="20" as="geometry" />
        </mxCell>
        <mxCell id="cUkHE_b0gsF6nqKIRXyq-21" value="&lt;div&gt;locked&lt;/div&gt;" style="shape=note;whiteSpace=wrap;html=1;backgroundOutline=1;darkOpacity=0.05;fillColor=#e1d5e7;strokeColor=#9673a6;" parent="XGGesKq-egn7d49ll_vX-4" vertex="1">
          <mxGeometry x="90" y="65" width="80" height="100" as="geometry" />
        </mxCell>
        <mxCell id="XGGesKq-egn7d49ll_vX-7" value="" style="group;fillColor=#d80073;strokeColor=#A50040;fontColor=#ffffff;" parent="1" vertex="1" connectable="0">
          <mxGeometry x="720" y="230" width="260" height="230" as="geometry" />
        </mxCell>
        <mxCell id="XGGesKq-egn7d49ll_vX-8" value="" style="rounded=0;whiteSpace=wrap;html=1;fillColor=#f5f5f5;strokeColor=#666666;fontColor=#333333;" parent="XGGesKq-egn7d49ll_vX-7" vertex="1">
          <mxGeometry width="260" height="230" as="geometry" />
        </mxCell>
        <mxCell id="XGGesKq-egn7d49ll_vX-9" value="Game 3" style="text;html=1;strokeColor=#6c8ebf;fillColor=#dae8fc;align=center;verticalAlign=middle;whiteSpace=wrap;rounded=0;" parent="XGGesKq-egn7d49ll_vX-7" vertex="1">
          <mxGeometry width="120" height="20" as="geometry" />
        </mxCell>
        <mxCell id="cUkHE_b0gsF6nqKIRXyq-22" value="locked" style="shape=note;whiteSpace=wrap;html=1;backgroundOutline=1;darkOpacity=0.05;fillColor=#e1d5e7;strokeColor=#9673a6;" parent="XGGesKq-egn7d49ll_vX-7" vertex="1">
          <mxGeometry x="90" y="65" width="80" height="100" as="geometry" />
        </mxCell>
        <mxCell id="XGGesKq-egn7d49ll_vX-10" value="" style="group" parent="1" vertex="1" connectable="0">
          <mxGeometry x="90" y="530" width="260" height="230" as="geometry" />
        </mxCell>
        <mxCell id="XGGesKq-egn7d49ll_vX-11" value="" style="rounded=0;whiteSpace=wrap;html=1;fillColor=#f5f5f5;strokeColor=#666666;fontColor=#333333;" parent="XGGesKq-egn7d49ll_vX-10" vertex="1">
          <mxGeometry width="260" height="230" as="geometry" />
        </mxCell>
        <mxCell id="XGGesKq-egn7d49ll_vX-12" value="Game 4" style="text;html=1;strokeColor=#6c8ebf;fillColor=#dae8fc;align=center;verticalAlign=middle;whiteSpace=wrap;rounded=0;" parent="XGGesKq-egn7d49ll_vX-10" vertex="1">
          <mxGeometry width="120" height="20" as="geometry" />
        </mxCell>
        <mxCell id="cUkHE_b0gsF6nqKIRXyq-25" value="locked" style="shape=note;whiteSpace=wrap;html=1;backgroundOutline=1;darkOpacity=0.05;fillColor=#e1d5e7;strokeColor=#9673a6;" parent="XGGesKq-egn7d49ll_vX-10" vertex="1">
          <mxGeometry x="90" y="65" width="80" height="100" as="geometry" />
        </mxCell>
        <mxCell id="XGGesKq-egn7d49ll_vX-13" value="" style="group" parent="1" vertex="1" connectable="0">
          <mxGeometry x="720" y="530" width="260" height="230" as="geometry" />
        </mxCell>
        <mxCell id="XGGesKq-egn7d49ll_vX-14" value="" style="rounded=0;whiteSpace=wrap;html=1;fillColor=#f5f5f5;strokeColor=#666666;fontColor=#333333;" parent="XGGesKq-egn7d49ll_vX-13" vertex="1">
          <mxGeometry width="260" height="230" as="geometry" />
        </mxCell>
        <mxCell id="XGGesKq-egn7d49ll_vX-15" value="Game 6" style="text;html=1;strokeColor=#6c8ebf;fillColor=#dae8fc;align=center;verticalAlign=middle;whiteSpace=wrap;rounded=0;" parent="XGGesKq-egn7d49ll_vX-13" vertex="1">
          <mxGeometry width="120" height="20" as="geometry" />
        </mxCell>
        <mxCell id="cUkHE_b0gsF6nqKIRXyq-23" value="locked" style="shape=note;whiteSpace=wrap;html=1;backgroundOutline=1;darkOpacity=0.05;fillColor=#e1d5e7;strokeColor=#9673a6;" parent="XGGesKq-egn7d49ll_vX-13" vertex="1">
          <mxGeometry x="90" y="65" width="80" height="100" as="geometry" />
        </mxCell>
        <mxCell id="XGGesKq-egn7d49ll_vX-16" value="" style="group" parent="1" vertex="1" connectable="0">
          <mxGeometry x="405" y="530" width="260" height="230" as="geometry" />
        </mxCell>
        <mxCell id="XGGesKq-egn7d49ll_vX-17" value="" style="rounded=0;whiteSpace=wrap;html=1;fillColor=#f5f5f5;strokeColor=#666666;fontColor=#333333;" parent="XGGesKq-egn7d49ll_vX-16" vertex="1">
          <mxGeometry width="260" height="230" as="geometry" />
        </mxCell>
        <mxCell id="XGGesKq-egn7d49ll_vX-18" value="Game 5" style="text;html=1;strokeColor=#6c8ebf;fillColor=#dae8fc;align=center;verticalAlign=middle;whiteSpace=wrap;rounded=0;" parent="XGGesKq-egn7d49ll_vX-16" vertex="1">
          <mxGeometry width="120" height="20" as="geometry" />
        </mxCell>
        <mxCell id="cUkHE_b0gsF6nqKIRXyq-24" value="locked" style="shape=note;whiteSpace=wrap;html=1;backgroundOutline=1;darkOpacity=0.05;fillColor=#e1d5e7;strokeColor=#9673a6;" parent="XGGesKq-egn7d49ll_vX-16" vertex="1">
          <mxGeometry x="90" y="65" width="80" height="100" as="geometry" />
        </mxCell>
        <mxCell id="cUkHE_b0gsF6nqKIRXyq-1" value="" style="group" parent="1" vertex="1" connectable="0">
          <mxGeometry x="1150" y="1270" width="260" height="230" as="geometry" />
        </mxCell>
        <mxCell id="cUkHE_b0gsF6nqKIRXyq-2" value="" style="rounded=0;whiteSpace=wrap;html=1;fillColor=#f5f5f5;strokeColor=#666666;fontColor=#333333;" parent="cUkHE_b0gsF6nqKIRXyq-1" vertex="1">
          <mxGeometry width="260" height="230" as="geometry" />
        </mxCell>
        <mxCell id="cUkHE_b0gsF6nqKIRXyq-3" value="Game 1" style="text;html=1;strokeColor=#6c8ebf;fillColor=#dae8fc;align=center;verticalAlign=middle;whiteSpace=wrap;rounded=0;" parent="cUkHE_b0gsF6nqKIRXyq-1" vertex="1">
          <mxGeometry width="120" height="20" as="geometry" />
        </mxCell>
        <mxCell id="cUkHE_b0gsF6nqKIRXyq-26" value="Top Five Scores" style="text;html=1;strokeColor=none;fillColor=none;align=center;verticalAlign=middle;whiteSpace=wrap;rounded=0;" parent="cUkHE_b0gsF6nqKIRXyq-1" vertex="1">
          <mxGeometry x="95" y="80" width="70" height="70" as="geometry" />
        </mxCell>
        <mxCell id="cUkHE_b0gsF6nqKIRXyq-4" value="" style="group" parent="1" vertex="1" connectable="0">
          <mxGeometry x="1460" y="1270" width="260" height="230" as="geometry" />
        </mxCell>
        <mxCell id="cUkHE_b0gsF6nqKIRXyq-5" value="" style="rounded=0;whiteSpace=wrap;html=1;fillColor=#f5f5f5;strokeColor=#666666;fontColor=#333333;" parent="cUkHE_b0gsF6nqKIRXyq-4" vertex="1">
          <mxGeometry width="260" height="230" as="geometry" />
        </mxCell>
        <mxCell id="cUkHE_b0gsF6nqKIRXyq-6" value="Game 2" style="text;html=1;strokeColor=#6c8ebf;fillColor=#dae8fc;align=center;verticalAlign=middle;whiteSpace=wrap;rounded=0;" parent="cUkHE_b0gsF6nqKIRXyq-4" vertex="1">
          <mxGeometry width="120" height="20" as="geometry" />
        </mxCell>
        <mxCell id="cUkHE_b0gsF6nqKIRXyq-27" value="Top Five Scores" style="text;html=1;strokeColor=none;fillColor=none;align=center;verticalAlign=middle;whiteSpace=wrap;rounded=0;" parent="cUkHE_b0gsF6nqKIRXyq-4" vertex="1">
          <mxGeometry x="95" y="80" width="70" height="70" as="geometry" />
        </mxCell>
        <mxCell id="cUkHE_b0gsF6nqKIRXyq-7" value="" style="group" parent="1" vertex="1" connectable="0">
          <mxGeometry x="1755" y="1270" width="260" height="230" as="geometry" />
        </mxCell>
        <mxCell id="cUkHE_b0gsF6nqKIRXyq-8" value="" style="rounded=0;whiteSpace=wrap;html=1;fillColor=#f5f5f5;strokeColor=#666666;fontColor=#333333;" parent="cUkHE_b0gsF6nqKIRXyq-7" vertex="1">
          <mxGeometry width="260" height="230" as="geometry" />
        </mxCell>
        <mxCell id="cUkHE_b0gsF6nqKIRXyq-9" value="Game 3" style="text;html=1;strokeColor=#6c8ebf;fillColor=#dae8fc;align=center;verticalAlign=middle;whiteSpace=wrap;rounded=0;" parent="cUkHE_b0gsF6nqKIRXyq-7" vertex="1">
          <mxGeometry width="120" height="20" as="geometry" />
        </mxCell>
        <mxCell id="cUkHE_b0gsF6nqKIRXyq-28" value="Top Five Scores" style="text;html=1;strokeColor=none;fillColor=none;align=center;verticalAlign=middle;whiteSpace=wrap;rounded=0;" parent="cUkHE_b0gsF6nqKIRXyq-7" vertex="1">
          <mxGeometry x="95" y="80" width="70" height="70" as="geometry" />
        </mxCell>
        <mxCell id="cUkHE_b0gsF6nqKIRXyq-10" value="" style="group" parent="1" vertex="1" connectable="0">
          <mxGeometry x="1150" y="1550" width="260" height="230" as="geometry" />
        </mxCell>
        <mxCell id="cUkHE_b0gsF6nqKIRXyq-11" value="" style="rounded=0;whiteSpace=wrap;html=1;fillColor=#f5f5f5;strokeColor=#666666;fontColor=#333333;" parent="cUkHE_b0gsF6nqKIRXyq-10" vertex="1">
          <mxGeometry width="260" height="230" as="geometry" />
        </mxCell>
        <mxCell id="cUkHE_b0gsF6nqKIRXyq-12" value="Game 4" style="text;html=1;strokeColor=#6c8ebf;fillColor=#dae8fc;align=center;verticalAlign=middle;whiteSpace=wrap;rounded=0;" parent="cUkHE_b0gsF6nqKIRXyq-10" vertex="1">
          <mxGeometry width="120" height="20" as="geometry" />
        </mxCell>
        <mxCell id="cUkHE_b0gsF6nqKIRXyq-31" value="Top Five Scores" style="text;html=1;strokeColor=none;fillColor=none;align=center;verticalAlign=middle;whiteSpace=wrap;rounded=0;" parent="cUkHE_b0gsF6nqKIRXyq-10" vertex="1">
          <mxGeometry x="95" y="80" width="70" height="70" as="geometry" />
        </mxCell>
        <mxCell id="cUkHE_b0gsF6nqKIRXyq-13" value="" style="group" parent="1" vertex="1" connectable="0">
          <mxGeometry x="1755" y="1550" width="260" height="230" as="geometry" />
        </mxCell>
        <mxCell id="cUkHE_b0gsF6nqKIRXyq-14" value="" style="rounded=0;whiteSpace=wrap;html=1;fillColor=#f5f5f5;strokeColor=#666666;fontColor=#333333;" parent="cUkHE_b0gsF6nqKIRXyq-13" vertex="1">
          <mxGeometry width="260" height="230" as="geometry" />
        </mxCell>
        <mxCell id="cUkHE_b0gsF6nqKIRXyq-15" value="Game 6" style="text;html=1;strokeColor=#6c8ebf;fillColor=#dae8fc;align=center;verticalAlign=middle;whiteSpace=wrap;rounded=0;" parent="cUkHE_b0gsF6nqKIRXyq-13" vertex="1">
          <mxGeometry width="120" height="20" as="geometry" />
        </mxCell>
        <mxCell id="cUkHE_b0gsF6nqKIRXyq-30" value="Top Five Scores" style="text;html=1;strokeColor=none;fillColor=none;align=center;verticalAlign=middle;whiteSpace=wrap;rounded=0;" parent="cUkHE_b0gsF6nqKIRXyq-13" vertex="1">
          <mxGeometry x="95" y="80" width="70" height="70" as="geometry" />
        </mxCell>
        <mxCell id="cUkHE_b0gsF6nqKIRXyq-16" value="" style="group" parent="1" vertex="1" connectable="0">
          <mxGeometry x="1460" y="1550" width="260" height="230" as="geometry" />
        </mxCell>
        <mxCell id="cUkHE_b0gsF6nqKIRXyq-17" value="" style="rounded=0;whiteSpace=wrap;html=1;fillColor=#f5f5f5;strokeColor=#666666;fontColor=#333333;" parent="cUkHE_b0gsF6nqKIRXyq-16" vertex="1">
          <mxGeometry width="260" height="230" as="geometry" />
        </mxCell>
        <mxCell id="cUkHE_b0gsF6nqKIRXyq-18" value="Game 5" style="text;html=1;strokeColor=#6c8ebf;fillColor=#dae8fc;align=center;verticalAlign=middle;whiteSpace=wrap;rounded=0;" parent="cUkHE_b0gsF6nqKIRXyq-16" vertex="1">
          <mxGeometry width="120" height="20" as="geometry" />
        </mxCell>
        <mxCell id="cUkHE_b0gsF6nqKIRXyq-29" value="Top Five Scores" style="text;html=1;strokeColor=none;fillColor=none;align=center;verticalAlign=middle;whiteSpace=wrap;rounded=0;" parent="cUkHE_b0gsF6nqKIRXyq-16" vertex="1">
          <mxGeometry x="95" y="80" width="70" height="70" as="geometry" />
        </mxCell>
        <mxCell id="TKCLkN5G2Kj979ECF87t-1" value="" style="rounded=0;whiteSpace=wrap;html=1;" vertex="1" parent="1">
          <mxGeometry x="1100" y="80" width="960" height="30" as="geometry" />
        </mxCell>
        <mxCell id="TKCLkN5G2Kj979ECF87t-2" value="NavBar" style="text;html=1;strokeColor=#6c8ebf;fillColor=#dae8fc;align=center;verticalAlign=middle;whiteSpace=wrap;rounded=0;" vertex="1" parent="1">
          <mxGeometry x="1100" y="80" width="120" height="20" as="geometry" />
        </mxCell>
        <mxCell id="TKCLkN5G2Kj979ECF87t-3" value="" style="rounded=0;whiteSpace=wrap;html=1;" vertex="1" parent="1">
          <mxGeometry x="60" y="80" width="960" height="30" as="geometry" />
        </mxCell>
        <mxCell id="TKCLkN5G2Kj979ECF87t-4" value="NavBar" style="text;html=1;strokeColor=#6c8ebf;fillColor=#dae8fc;align=center;verticalAlign=middle;whiteSpace=wrap;rounded=0;" vertex="1" parent="1">
          <mxGeometry x="60" y="80" width="120" height="20" as="geometry" />
        </mxCell>
        <mxCell id="TKCLkN5G2Kj979ECF87t-5" value="" style="rounded=0;whiteSpace=wrap;html=1;" vertex="1" parent="1">
          <mxGeometry x="60" y="1139" width="960" height="30" as="geometry" />
        </mxCell>
        <mxCell id="TKCLkN5G2Kj979ECF87t-6" value="NavBar" style="text;html=1;strokeColor=#6c8ebf;fillColor=#dae8fc;align=center;verticalAlign=middle;whiteSpace=wrap;rounded=0;" vertex="1" parent="1">
          <mxGeometry x="60" y="1139" width="120" height="20" as="geometry" />
        </mxCell>
        <mxCell id="TKCLkN5G2Kj979ECF87t-7" value="" style="rounded=0;whiteSpace=wrap;html=1;" vertex="1" parent="1">
          <mxGeometry x="1100" y="1139" width="960" height="30" as="geometry" />
        </mxCell>
        <mxCell id="TKCLkN5G2Kj979ECF87t-8" value="NavBar" style="text;html=1;strokeColor=#6c8ebf;fillColor=#dae8fc;align=center;verticalAlign=middle;whiteSpace=wrap;rounded=0;" vertex="1" parent="1">
          <mxGeometry x="1100" y="1139" width="120" height="20" as="geometry" />
        </mxCell>
      </root>
    </mxGraphModel>
  </diagram>
</mxfile>
